<svg xmlns="http://www.w3.org/2000/svg" width="512" height="512" viewBox="0 0 512 512">
  <g fill="none">
    <circle cx="256" cy="256" r="256" fill="#00BC4B"/>
    <g fill="#FFF" transform="translate(87 110)">
      <path d="M140.870702,248.997467 L135.713102,254.125049 C135.025422,254.807271 134.234044,255.151111 133.338969,255.151111 C132.446622,255.151111 131.655244,254.81 130.967564,254.125049 L82.8981867,206.342204 C82.2105067,205.659982 81.8666667,204.872698 81.8666667,203.984444 C81.8666667,203.097556 82.2105067,202.310271 82.8981867,201.626684 L130.967564,153.84384 C131.655244,153.161618 132.446622,152.817778 133.341698,152.817778 C134.234044,152.817778 135.025422,153.158889 135.713102,153.84384 L140.870702,158.970058 C141.558382,159.65228 141.902222,160.436836 141.902222,161.325089 C141.902222,162.214707 141.558382,163.000627 140.870702,163.685578 L100.333058,203.984444 L140.870702,244.281947 C141.558382,244.964169 141.902222,245.751453 141.902222,246.642436 C141.902222,247.529324 141.558382,248.315244 140.870702,248.998831 L140.870702,248.997467 Z M269.12848,206.342204 L221.059102,254.125049 C220.371422,254.807271 219.580044,255.151111 218.684969,255.151111 C217.792622,255.151111 217.001244,254.81 216.313564,254.125049 L211.155964,248.998831 C210.468284,248.316609 210.124444,247.532053 210.124444,246.6438 C210.124444,245.754182 210.468284,244.968262 211.155964,244.283311 L251.693609,203.987173 L211.155964,163.691036 C210.468284,163.008813 210.124444,162.221529 210.124444,161.330547 C210.124444,160.443658 210.468284,159.657738 211.155964,158.974151 L216.313564,153.846569 C217.001244,153.164347 217.792622,152.820507 218.687698,152.820507 C219.580044,152.820507 220.371422,153.161618 221.059102,153.846569 L269.12848,201.629413 C269.81616,202.311636 270.16,203.09892 270.16,203.987173 C270.16,204.874062 269.81616,205.661347 269.12848,206.344933 L269.12848,206.342204 Z"/>
      <path d="M0,157.420049 C0,174.438764 1.45586222,189.866538 4.36622222,203.702004 C7.27794667,217.537471 11.37128,229.53776 16.6462222,239.700142 C21.9225289,249.862524 28.5932978,258.769618 36.6585289,266.422787 C44.7223956,274.07732 53.4862222,280.381053 62.9459156,285.343538 C72.4069733,290.301929 83.2311111,294.313396 95.4196933,297.37248 C107.608276,300.434293 120.009711,302.576471 132.624,303.801742 C145.236924,305.027013 159.12424,305.638284 174.284582,305.638284 C189.44356,305.638284 203.360893,305.029742 216.036582,303.804471 C228.712271,302.5792 241.14236,300.437022 253.330942,297.375209 C265.519524,294.31476 276.376409,290.304658 285.896138,285.346267 C295.415867,280.386511 304.239729,274.080049 312.36636,266.428244 C320.491627,258.773711 327.193778,249.867982 332.46872,239.7056 C337.745027,229.543218 341.869742,217.542929 344.840138,203.707462 C347.811898,189.871996 349.297778,174.444222 349.297778,157.425507 C349.297778,126.936996 339.83672,100.674169 320.917333,78.6356622 C322.008889,75.6952844 322.947627,72.3278356 323.736276,68.5319511 C324.52356,64.7360667 325.282191,59.3792578 326.00944,52.4615244 C326.739418,45.5437911 326.465164,37.5536044 325.190773,28.4936933 C323.917747,19.4337822 321.523147,10.1910356 318.005609,0.764088889 L315.27672,0.211488889 C313.457916,-0.154182222 310.48752,-0.0313822222 306.362804,0.579888889 C302.242182,1.19388889 297.418871,2.29499556 291.899693,3.88730222 C286.383244,5.47824444 279.256751,8.63147556 270.524307,13.3456311 C261.791862,18.0584222 252.57504,24.0292311 242.871111,31.2526 C226.374978,26.2314444 203.636511,20.9783333 174.648889,20.9783333 C145.662631,20.9783333 122.8614,26.2314444 106.24656,31.2526 C96.5426311,24.0265022 87.2944267,18.08844 78.5019467,13.4356844 C69.7094667,8.78292889 62.6743911,5.59968 57.3980844,3.88457333 C52.1217778,2.16673778 47.24116,1.06426667 42.7535022,0.573066667 C38.26448,0.0845955556 35.3855022,-0.0682222222 34.1111111,0.114613333 C32.8380844,0.297448889 31.8979822,0.510302222 31.2921689,0.755902222 C27.7719022,10.1842133 25.3486489,19.4296889 24.0142222,28.4909644 C22.6797956,37.5508756 22.3768889,45.5124089 23.1041378,52.3687422 C23.8327511,59.2250756 24.6186711,64.6132667 25.4700844,68.5305867 C26.3187689,72.4492711 27.2888889,75.81672 28.3804444,78.6329333 C9.46105778,100.545911 0,126.807373 0,157.418684 L0,157.420049 Z M47.2316089,196.070667 C47.2316089,176.245289 54.5382089,158.266004 69.1541378,142.131449 C73.5380978,137.208533 78.6233822,133.480871 84.4086267,130.952556 C90.1938711,128.42424 96.7677644,126.98748 104.138493,126.645004 C111.506493,126.303893 118.537476,126.372116 125.235533,126.849671 C131.934956,127.329956 140.217133,127.979431 150.082067,128.800827 C159.944271,129.619493 168.470684,130.028827 175.655849,130.028827 C182.839649,130.028827 191.366062,129.619493 201.229631,128.800827 C211.098658,127.979431 219.376742,127.329956 226.076164,126.849671 C232.775587,126.372116 239.809298,126.303893 247.177298,126.645004 C254.545298,126.986116 261.153302,128.42424 266.998582,130.952556 C272.845227,133.482236 277.960529,137.208533 282.344489,142.131449 C296.957689,158.266004 304.265653,176.245289 304.265653,196.070667 C304.265653,207.693004 303.048569,218.051867 300.611671,227.14316 C298.176138,236.237182 295.099316,243.857604 291.385298,250.011249 C287.67128,256.164893 282.461831,261.363427 275.767867,265.600027 C269.068444,269.839356 262.58324,273.120844 256.310889,275.444493 C250.039902,277.768142 241.94056,279.57876 232.015591,280.879076 C222.087893,282.175298 213.199902,282.966676 205.340702,283.236836 C197.48696,283.509724 187.593373,283.646169 175.658578,283.646169 C163.723782,283.646169 153.858849,283.509724 146.063778,283.236836 C138.270071,282.963947 129.410733,282.176662 119.4844,280.879076 C109.559431,279.580124 101.460089,277.768142 95.1877378,275.444493 C88.9167511,273.11948 82.4329111,269.839356 75.7334889,265.600027 C69.0340667,261.362062 63.8287111,256.164893 60.1146933,250.011249 C56.4006756,243.857604 53.3252178,236.237182 50.8910489,227.14316 C48.4541511,218.050502 47.2343378,207.693004 47.2343378,196.070667 L47.2316089,196.070667 Z"/>
    </g>
  </g>
</svg>
